<?xml version="1.0" encoding="utf-8"?>
<!-- Generator: Adobe Illustrator 14.0.0, SVG Export Plug-In  -->
<!DOCTYPE svg PUBLIC "-//W3C//DTD SVG 1.1//EN" "http://www.w3.org/Graphics/SVG/1.1/DTD/svg11.dtd" [
	<!ENTITY ns_flows "http://ns.adobe.com/Flows/1.0/">
]>
<svg version="1.1"
	 xmlns="http://www.w3.org/2000/svg" xmlns:xlink="http://www.w3.org/1999/xlink" xmlns:a="http://ns.adobe.com/AdobeSVGViewerExtensions/3.0/"
	 x="0px" y="0px" width="424px" height="109px" viewBox="-10.607 -9.754 424 109" enable-background="new -10.607 -9.754 424 109"
	 xml:space="preserve">
<defs>
</defs>
<path fill="#FFFFFF" d="M40.273,59.733c-5.588,7.13-11.369,9.345-23.798,9.345H0V2.407h13.874c12.524,0,19.943,2.312,26.206,9.442
	c4.914,5.684,7.226,13.681,7.226,24.086C47.306,46.051,44.801,53.953,40.273,59.733z M30.734,16.956
	c-3.083-4.239-6.552-5.781-12.525-5.781h-7.033v48.848h7.322c11.754,0,16.475-7.805,16.475-22.931
	C34.974,28.517,34.203,21.676,30.734,16.956z"/>
<path fill="#FFFFFF" d="M81.292,70.138c-18.98,0-28.325-14.645-28.325-34.396c0-21.967,11.176-34.299,27.844-34.299
	c18.787,0,27.844,14.933,27.844,34.395C108.655,56.65,98.634,70.138,81.292,70.138z M80.714,10.018
	c-11.176,0-15.416,9.057-15.416,25.05c0,17.149,4.336,26.688,15.705,26.688c9.923,0,15.03-7.322,15.03-25.243
	C96.033,20.231,92.661,10.018,80.714,10.018z"/>
<path fill="#FFFFFF" d="M141.406,70.138c-18.98,0-28.325-14.645-28.325-34.396c0-21.967,11.176-34.299,27.844-34.299
	c18.787,0,27.844,14.933,27.844,34.395C168.769,56.65,158.749,70.138,141.406,70.138z M140.829,10.018
	c-11.176,0-15.416,9.057-15.416,25.05c0,17.149,4.336,26.688,15.705,26.688c9.923,0,15.03-7.322,15.03-25.243
	C156.147,20.231,152.775,10.018,140.829,10.018z"/>
<path fill="#FFFFFF" d="M216.357,59.733c-5.588,7.13-11.369,9.345-23.797,9.345h-16.475V2.407h13.874
	c12.524,0,19.943,2.312,26.206,9.442c4.914,5.684,7.226,13.681,7.226,24.086C223.391,46.051,220.885,53.953,216.357,59.733z
	 M206.819,16.956c-3.083-4.239-6.551-5.781-12.525-5.781h-7.033v48.848h7.322c11.755,0,16.476-7.805,16.476-22.931
	C211.059,28.517,210.288,21.676,206.819,16.956z"/>
<path fill="#FFFFFF" d="M265.682,69.078l-5.396-17.534h-21.582l-5.395,17.534h-11.465l21.87-66.767h12.814l21.292,66.767H265.682z
	 M249.881,13.39h-0.096c-1.349,4.914-7.034,24.954-8.382,28.904h16.379C257.107,40.849,250.363,15.992,249.881,13.39z"/>
<path fill="#FFFFFF" d="M324.102,59.733c-5.588,7.13-11.367,9.345-23.797,9.345h-16.475V2.407h13.873
	c12.523,0,19.943,2.312,26.206,9.442c4.913,5.684,7.225,13.681,7.225,24.086C331.134,46.051,328.63,53.953,324.102,59.733z
	 M314.564,16.956c-3.083-4.239-6.552-5.781-12.525-5.781h-7.033v48.848h7.321c11.756,0,16.476-7.805,16.476-22.931
	C318.802,28.517,318.032,21.676,314.564,16.956z"/>
<path fill="#04756F" d="M344.926,29.877c0,1.203-0.287,3.008-0.854,5.414c-0.569,2.407-0.851,4.211-0.851,5.415v22.156
	c0,1.472,0.332,3.477,1.001,6.016c-0.269,0.535-0.636,0.803-1.103,0.803c-3.275,0-4.913-1.57-4.913-4.712V28.173
	c0.868-0.467,1.706-0.702,2.507-0.702s1.638,0.235,2.508,0.702C344.356,28.641,344.926,29.21,344.926,29.877z M346.829,14.839
	c0,2.272-1.069,3.408-3.207,3.408c-1.271,0-2.441-0.467-3.51-1.403c-1.069-0.936-1.604-2.005-1.604-3.208
	c0-2.271,1.135-3.409,3.41-3.409c1.334,0,2.487,0.436,3.458,1.303C346.343,12.399,346.829,13.502,346.829,14.839z"/>
<path fill="#04756F" d="M379.414,7.219c0,1.338-1.003,2.005-3.008,2.005c-0.401,0-0.703-0.068-0.903-0.205
	c-0.268-2.87-2.139-4.307-5.613-4.307c-3.275,0-5.816,3.758-7.621,11.271c-1.203,5.302-1.805,10.366-1.805,15.197
	c0.467-0.065,1.07-0.065,1.805,0c1.604,0,2.507,0,2.708,0c2.471,0,3.709,0.736,3.709,2.206c0,0.468-0.066,1.137-0.202,2.005
	c-1.082,0.602-2.773,0.902-5.069,0.902c-1.758,0-2.842,0.135-3.246,0.401c-0.204,2.606-0.304,7.319-0.304,14.137v7.218
	c0,3.209,0.393,6.452,1.186,9.726c0.144,0.335,0.216,0.636,0.216,0.903c0,1.604-1.138,2.405-3.407,2.405
	c-2.006,0-3.008-2.707-3.008-8.12c0-14.704,0.133-23.394,0.4-26.068c0.134,0-1.572,0-5.113,0c-1.539,0-2.306-0.735-2.306-2.206
	c0-1.938,1.336-2.908,4.011-2.908h3.609c0.133-1.336,0.267-3.041,0.4-5.113C356.856,8.89,361.833,0,370.79,0
	C376.539,0,379.414,2.406,379.414,7.219z"/>
<path fill="#04756F" d="M402.27,29.777c-0.557,2.942-1.08,5.882-1.566,8.823c-0.627,3.143-0.939,6.083-0.939,8.823v31.381
	c0,4.478-1.352,8.037-4.059,10.678c-2.709,2.64-6.336,3.96-10.879,3.96c-2.475,0-5.249-0.669-8.321-2.005
	c-3.544-1.47-5.983-3.309-7.32-5.515c-0.335-0.601-0.501-1.202-0.501-1.805c0-1.938,0.936-2.906,2.807-2.906
	c0.402,0,0.836,0.132,1.305,0.399c1.135,1.204,2.271,2.372,3.407,3.51c2.273,2.071,5.147,3.108,8.624,3.108
	c4.41,0,7.35-1.539,8.823-4.612c0.868-1.939,1.303-5.448,1.303-10.527c0-0.668-0.135-2.005-0.401-4.011
	c-0.268-1.67-0.336-3.14-0.2-4.41c-1.872,1.737-3.208,2.842-4.011,3.309c-1.472,0.936-3.075,1.403-4.813,1.403
	c-4.544,0-7.985-1.771-10.327-5.314c-2.07-3.073-3.106-6.983-3.106-11.729c0-9.023,0.133-16.643,0.4-22.859
	c0.269-2.138,1.437-3.208,3.509-3.208c2.541,0,3.676,0.436,3.41,1.303c-1.271,3.477-1.906,11.263-1.906,23.361
	c0,9.358,2.658,14.036,7.975,14.036c3.259,0,5.85-2.506,7.781-7.519c1.46-3.877,2.156-7.787,2.092-11.731v-11.43
	c0.064-1.136,0.148-2.572,0.251-4.311c0.101-1.737,1.185-2.54,3.257-2.406C401.268,27.772,402.406,28.508,402.27,29.777z"/>
</svg>
