<?xml version="1.0" encoding="utf-8"?>
<!-- Generator: Adobe Illustrator 14.0.0, SVG Export Plug-In  -->
<!DOCTYPE svg PUBLIC "-//W3C//DTD SVG 1.1//EN" "http://www.w3.org/Graphics/SVG/1.1/DTD/svg11.dtd" [
	<!ENTITY ns_flows "http://ns.adobe.com/Flows/1.0/">
]>
<svg version="1.1"
	 xmlns="http://www.w3.org/2000/svg" xmlns:xlink="http://www.w3.org/1999/xlink" xmlns:a="http://ns.adobe.com/AdobeSVGViewerExtensions/3.0/"
	 x="0px" y="0px" width="80px" height="120px" viewBox="-10.673 -9.391 80 120" enable-background="new -10.673 -9.391 80 120"
	 xml:space="preserve">
<defs>
</defs>
<path fill="#333333" d="M2.562,84.515c-3.413,3.416-3.419,8.957,0,12.377c1.709,1.713,3.953,2.568,6.193,2.568
	s4.479-0.854,6.186-2.559l40.978-40.986c0.088-0.088,0.154-0.188,0.238-0.275c0.163-0.178,0.323-0.358,0.471-0.549
	c0.127-0.162,0.241-0.331,0.355-0.503c0.121-0.181,0.241-0.362,0.35-0.552c0.115-0.205,0.214-0.413,0.313-0.624
	c0.055-0.114,0.121-0.22,0.169-0.338c0.024-0.063,0.036-0.13,0.063-0.19c0.088-0.226,0.157-0.455,0.227-0.684
	c0.054-0.188,0.111-0.371,0.153-0.561c0.052-0.224,0.081-0.453,0.117-0.679c0.024-0.196,0.055-0.386,0.073-0.582
	c0.018-0.231,0.015-0.468,0.012-0.702c0-0.188,0.003-0.374-0.012-0.561c-0.016-0.242-0.052-0.48-0.088-0.721
	c-0.027-0.182-0.051-0.359-0.094-0.54c-0.048-0.235-0.12-0.468-0.192-0.7c-0.055-0.18-0.108-0.357-0.175-0.533
	c-0.03-0.081-0.049-0.166-0.079-0.244c-0.06-0.145-0.145-0.274-0.211-0.413c-0.084-0.178-0.169-0.35-0.265-0.521
	c-0.115-0.208-0.248-0.41-0.38-0.606c-0.109-0.156-0.211-0.312-0.329-0.461c-0.153-0.199-0.322-0.386-0.491-0.57
	c-0.078-0.087-0.145-0.18-0.229-0.265L14.941,2.567c-3.422-3.423-8.96-3.423-12.376,0c-3.416,3.412-3.416,8.96,0,12.373
	l35.025,34.559L2.562,84.515z"/>
</svg>
