<?xml version="1.0" encoding="utf-8"?>
<!-- Generator: Adobe Illustrator 14.0.0, SVG Export Plug-In . SVG Version: 6.00 Build 43363)  -->
<!DOCTYPE svg PUBLIC "-//W3C//DTD SVG 1.1//EN" "http://www.w3.org/Graphics/SVG/1.1/DTD/svg11.dtd">
<svg version="1.1" id="Layer_1" xmlns="http://www.w3.org/2000/svg" xmlns:xlink="http://www.w3.org/1999/xlink" x="0px" y="0px"
	 width="200px" height="200px" viewBox="0 0 200 200" enable-background="new 0 0 200 200" xml:space="preserve">
<path fill="#998F8F" d="M138.275,96.441C138.675,94.1,139,91.717,139,89.25V57c0-23.747-19.254-43-43-43c-23.747,0-43,19.253-43,43
	v32.25c0,2.467,0.325,4.85,0.725,7.191C27.71,105.68,10,122.97,10,143v32.25c0,5.941,4.808,10.75,10.75,10.75h150.5
	c5.941,0,10.75-4.809,10.75-10.75V143C182,122.97,164.29,105.68,138.275,96.441z M74.5,57c0-11.873,9.627-21.5,21.5-21.5
	s21.5,9.627,21.5,21.5v32.25c0,11.873-9.627,21.5-21.5,21.5s-21.5-9.627-21.5-21.5V57z M160.5,164.5h-129V143
	c0-11.611,12.366-21.699,30.77-27.379C70.144,125.678,82.247,132.25,96,132.25c13.752,0,25.856-6.572,33.73-16.629
	c18.402,5.68,30.77,15.768,30.77,27.379V164.5z"/>
</svg>
