<?xml version="1.0" encoding="utf-8"?>
<!-- Generator: Adobe Illustrator 14.0.0, SVG Export Plug-In . SVG Version: 6.00 Build 43363)  -->
<!DOCTYPE svg PUBLIC "-//W3C//DTD SVG 1.1//EN" "http://www.w3.org/Graphics/SVG/1.1/DTD/svg11.dtd">
<svg version="1.1" id="Layer_1" xmlns="http://www.w3.org/2000/svg" xmlns:xlink="http://www.w3.org/1999/xlink" x="0px" y="0px"
	 width="200px" height="200px" viewBox="0 0 200 200" enable-background="new 0 0 200 200" xml:space="preserve">
<circle fill="#FFFFFF" cx="86.786" cy="94.172" r="73.75"/>
<polygon fill="#998F8F" points="128.881,65.704 113.055,49.709 89.173,73.344 65.291,49.709 49.464,65.702 73.18,89.173 
	49.464,112.645 65.291,128.637 89.173,105.002 113.055,128.637 128.881,112.643 105.167,89.173 "/>
<path fill="#998F8F" d="M89.173,0C39.923,0,0,39.924,0,89.171c0,49.251,39.923,89.175,89.173,89.175
	c49.248,0,89.173-39.924,89.173-89.175C178.346,39.924,138.421,0,89.173,0z M89.173,156.438c-37.149,0-67.265-30.114-67.265-67.266
	c0-37.148,30.115-67.264,67.265-67.264c37.15,0,67.265,30.115,67.265,67.264C156.438,126.322,126.322,156.438,89.173,156.438z"/>
</svg>
